<?xml version="1.0" encoding="utf-8"?><svg viewBox="0 0 30 30" xmlns="http://www.w3.org/2000/svg" xmlns:xlink="http://www.w3.org/1999/xlink"><style>:root>svg{display:none}:root>svg:target{display:block}</style><svg viewBox="0 0 23 21" id="Rectangle_38" xmlns="http://www.w3.org/2000/svg"><path d="M1 1h21v19H1z"/></svg><svg viewBox="0 0 16 29" id="arrow-black-left" xmlns="http://www.w3.org/2000/svg"><path d="M1.967 14.192l12.975-12.82a.794.794 0 000-1.136.817.817 0 00-1.15 0L.24 13.627a.794.794 0 000 1.136l13.553 13.385a.823.823 0 00.572.238.798.798 0 00.572-.238.794.794 0 000-1.136l-12.97-12.82z"/></svg><svg viewBox="0 0 16 29" id="arrow-black-right" xmlns="http://www.w3.org/2000/svg"><path d="M13.214 14.194L.24 27.014a.794.794 0 000 1.136.818.818 0 001.15 0l13.553-13.391a.794.794 0 000-1.136L1.39.238A.823.823 0 00.817 0a.798.798 0 00-.572.238.794.794 0 000 1.136l12.97 12.82z"/></svg><svg viewBox="0 0 16 29" id="arrow-left" xmlns="http://www.w3.org/2000/svg"><path d="M1.967 14.192l12.975-12.82a.794.794 0 000-1.136.817.817 0 00-1.15 0L.24 13.627a.794.794 0 000 1.136l13.553 13.385a.823.823 0 00.572.238.798.798 0 00.572-.238.794.794 0 000-1.136l-12.97-12.82z"/></svg><svg viewBox="0 0 17 29" id="arrow-right" xmlns="http://www.w3.org/2000/svg"><path d="M15.894 13.632L2.336.237a.818.818 0 00-1.15 0 .794.794 0 000 1.136l12.98 12.824-12.98 12.825a.794.794 0 000 1.136.823.823 0 00.572.238.798.798 0 00.572-.238l13.558-13.395a.793.793 0 00.006-1.131z"/></svg><svg viewBox="0 0 12 8" id="arrow-top" xmlns="http://www.w3.org/2000/svg"><path fill-rule="evenodd" clip-rule="evenodd" d="M1.4 7.4L6 2.8l4.6 4.6L12 6 6 0 0 6l1.4 1.4z"/></svg><svg viewBox="0 0 30 23" id="basket" xmlns="http://www.w3.org/2000/svg"><path d="M29.999 0l-.929 2.5h-2.41l-4.342 15H5.767L0 3.75h21.015l-.705 2.5H3.759L7.43 15h13.035l4.29-15H30zM10.624 18.75a1.876 1.876 0 10.001 3.751 1.876 1.876 0 00-.001-3.751zM19.249 10l-2.375 8.75a1.875 1.875 0 100 3.75 1.875 1.875 0 000-3.75L19.249 10z"/></svg><svg viewBox="0 0 8 6" id="check" xmlns="http://www.w3.org/2000/svg"><path fill-rule="evenodd" clip-rule="evenodd" d="M2.545 4.746L.636 2.866 0 3.493 2.545 6 8 .627 7.364 0 2.545 4.746z"/></svg><svg viewBox="0 0 30 30" id="facebook" xmlns="http://www.w3.org/2000/svg"><path d="M17.419 29.805zm.3-.052c-.06.012-.12.022-.18.032.06-.01.12-.02.18-.032zm-1.012.15zm.288-.036zm1.132-.195zm1.013-.252c-.042.013-.085.024-.127.036l.127-.035zm-.306.085l-.14.036.14-.037zm-.401.1l-.148.033.148-.033zm-2.171.342zM30 15c0-8.283-6.717-15-15-15C6.717 0 0 6.717 0 15c0 8.283 6.717 15 15 15l.264-.003V18.32H12.04v-3.756h3.223V11.8c0-3.205 1.956-4.95 4.816-4.95 1.369 0 2.546.103 2.889.148v3.35h-1.972c-1.555 0-1.857.74-1.857 1.824v2.392h3.72l-.485 3.756H19.14v11.1C25.41 27.623 30 21.848 30 15zM15.991 29.967zm-.478.023z"/></svg><svg viewBox="0 0 25 19" id="gallery-line" xmlns="http://www.w3.org/2000/svg"><g opacity=".3"><rect x="6" width="19" height="3" rx="1.5"/><rect x="6" y="8" width="19" height="3" rx="1.5"/><rect x="6" y="16" width="19" height="3" rx="1.5"/><rect width="3" height="3" rx="1.5"/><rect y="8" width="3" height="3" rx="1.5"/><rect y="16" width="3" height="3" rx="1.5"/></g></svg><svg viewBox="0 0 24 22" id="heart" xmlns="http://www.w3.org/2000/svg"><path d="M12 8.229c.234-1.12 1.547-6.23 5.382-6.23C19.602 2 22 3.552 22 7.004c0 3.907-3.627 8.47-10 12.629-6.373-4.16-10-8.722-10-12.63C2 3.52 4.369 1.999 6.577 1.999c3.923 0 5.145 5.126 5.423 6.23zM0 7.003C0 11.07 3.06 16.483 12 22c8.94-5.516 12-10.93 12-14.997 0-7.962-9.648-9.028-12-3.737C9.662-1.996 0-1.004 0 7.003z"/></svg><svg viewBox="0 0 24 22" id="heart-blue" xmlns="http://www.w3.org/2000/svg"><path d="M12 3.435C10.011-1.964 0-1.162 0 7.003 0 11.071 3.06 16.484 12 22c8.94-5.516 12-10.929 12-14.997 0-8.118-10-8.999-12-3.568z"/></svg><svg viewBox="0 0 30 30" id="instagram" xmlns="http://www.w3.org/2000/svg"><g clip-path="url(#ma)"><path d="M15.005 7.297a7.697 7.697 0 00-7.698 7.698 7.697 7.697 0 007.698 7.697 7.697 7.697 0 007.697-7.697 7.697 7.697 0 00-7.697-7.698zm0 12.694a4.995 4.995 0 01-4.997-4.996 4.995 4.995 0 014.997-4.996A4.995 4.995 0 0120 14.995a4.994 4.994 0 01-4.996 4.996z"/><path d="M21.185.095c-2.76-.128-9.596-.122-12.359 0C6.4.21 4.257.795 2.531 2.522-.354 5.407.015 9.294.015 14.996c0 5.835-.325 9.632 2.516 12.473 2.896 2.895 6.84 2.516 12.474 2.516 5.78 0 7.775.004 9.818-.787 2.78-1.079 4.877-3.563 5.082-8.024.13-2.761.122-9.596 0-12.359-.248-5.266-3.074-8.46-8.72-8.72zm4.369 25.466c-1.892 1.89-4.515 1.722-10.585 1.722-6.25 0-8.757.092-10.585-1.741-2.107-2.097-1.725-5.463-1.725-10.567 0-6.906-.71-11.88 6.222-12.235 1.592-.056 2.061-.075 6.07-.075l.056.038c6.662 0 11.888-.698 12.202 6.232.07 1.582.087 2.057.087 6.06-.001 6.177.116 8.698-1.742 10.566z"/><path d="M23.008 8.792a1.799 1.799 0 100-3.597 1.799 1.799 0 000 3.597z"/></g><defs><clipPath id="ma"><path d="M0 0h30v30H0z"/></clipPath></defs></svg><svg viewBox="0 0 30 30" id="location" xmlns="http://www.w3.org/2000/svg"><path d="M14.994 0C8.365 0 2.969 5.396 2.969 12.025c0 .755.069 1.516.214 2.258a11.842 11.842 0 00.887 2.774c1.295 3.05 4.144 7.735 10.396 12.754a.854.854 0 001.069 0c6.245-5.018 9.1-9.704 10.396-12.754a11.705 11.705 0 00.887-2.774c.138-.742.214-1.503.214-2.258C27.019 5.396 21.622 0 14.994 0zm10.138 13.987c0 .013-.006.026-.006.038a9.939 9.939 0 01-.057.27v.013a9.993 9.993 0 01-.698 2.05c-.006.007-.006.02-.012.026-1.176 2.786-3.755 7.037-9.365 11.673-5.61-4.636-8.189-8.887-9.365-11.673-.006-.007-.006-.02-.012-.026a10.651 10.651 0 01-.699-2.05v-.012c-.037-.145-.05-.24-.056-.27 0-.013-.006-.026-.006-.045a10.271 10.271 0 01-.19-1.962c0-5.692 4.636-10.327 10.328-10.327 5.692 0 10.327 4.635 10.327 10.327 0 .666-.063 1.327-.189 1.968z"/><path d="M14.994 4.522c-4.207 0-7.635 3.428-7.635 7.635 0 4.208 3.428 7.635 7.635 7.635 4.208 0 7.635-3.427 7.635-7.635 0-4.207-3.427-7.635-7.635-7.635zm0 13.572a5.944 5.944 0 01-5.937-5.937 5.948 5.948 0 015.937-5.937 5.948 5.948 0 015.937 5.937c0 3.27-2.66 5.937-5.937 5.937z"/></svg><svg viewBox="0 0 16 18" id="rub" xmlns="http://www.w3.org/2000/svg"><path d="M2.677 8.918V.395c2.803 0 5.341-.111 7.879.037 2.651.148 4.659 2.594 4.583 5.262-.076 2.594-2.121 4.854-4.772 4.966-1.894.11-3.75.037-5.72.037l-1.97-1.78zm1.97-6.819v6.893c.492.037 1.97 0 2.348 0 1.061 0 2.538.037 3.372-.074a3.372 3.372 0 003.03-3.41c-.038-1.778-1.402-3.297-3.258-3.409-1.78-.074-3.598 0-5.492 0z"/><path d="M8.246 11.104H4.647v-.74h1.818c1.326 0 2.614.036 3.902-.038 2.424-.148 4.356-2.15 4.394-4.632.075-2.557-1.856-4.743-4.243-4.891C8.776.69 7.034.728 5.215.765c-.72 0-1.439.038-2.159.038v8.152H2.3V.061h.379c.87 0 1.704 0 2.537-.037a86.36 86.36 0 015.38.037c2.802.149 5 2.706 4.961 5.633-.076 2.853-2.31 5.188-5.113 5.336-.758.074-1.478.074-2.197.074zm0-1.741H4.61l-.341-.037V1.692H6.39c1.288 0 2.538-.037 3.788.037 2.007.111 3.598 1.779 3.636 3.78.038 1.927-1.477 3.594-3.371 3.78-.493.074-1.25.074-2.197.074zM6.844 8.62h.152c1.59.038 2.69 0 3.333-.037 1.515-.148 2.727-1.482 2.69-3.038a3.047 3.047 0 00-2.917-3.039C8.89 2.433 7.678 2.47 6.39 2.47H5.026v6.151h1.818z"/><path d="M5.329 8.992H.973v1.742h4.356V8.992z"/><path d="M5.67 11.067H.557V8.584H5.67v2.483zm-4.318-.741H4.95v-1H1.353v1zm7.499 2.112H.973v1.742H8.85v-1.742z"/><path d="M9.23 14.55H.594v-2.482H9.23v2.483zm-7.879-.74h7.121v-1.001h-7.12v1z"/><path d="M4.647 7.917h-1.97v9.71h1.97v-9.71z"/><path d="M5.026 17.997H2.3V7.547h2.727v10.45zm-1.97-.741H4.27V8.288H3.056v8.968z"/></svg><svg viewBox="0 0 20 28" id="scale" xmlns="http://www.w3.org/2000/svg"><rect x="16" y="15.771" width="4" height="11.726" rx="2"/><rect x="8" y=".528" width="4" height="26.969" rx="2"/><rect y="9.908" width="4" height="17.588" rx="2"/></svg><svg viewBox="0 0 24 24" id="user" xmlns="http://www.w3.org/2000/svg"><path d="M20.823 18.096c-3.44-.794-6.64-1.49-5.09-4.418C20.453 4.766 16.983 0 12 0 6.918 0 3.536 4.949 8.268 13.678c1.597 2.945-1.725 3.641-5.09 4.418C.105 18.806-.01 20.332 0 23l.004 1h23.99l.005-.969c.012-2.688-.092-4.222-3.176-4.935z"/></svg><svg viewBox="0 0 30 30" id="vk" xmlns="http://www.w3.org/2000/svg"><path d="M24.894 16.285c-.485-.613-.346-.885 0-1.433.006-.006 4.01-5.538 4.422-7.415h.003c.205-.684 0-1.187-.991-1.187h-3.28c-.835 0-1.22.431-1.427.914 0 0-1.67 3.997-4.032 6.588-.763.75-1.115.99-1.531.99-.206 0-.524-.24-.524-.925v-6.38c0-.82-.234-1.187-.925-1.187H11.45c-.524 0-.835.383-.835.739 0 .777 1.181.956 1.304 3.144v4.746c0 1.04-.189 1.231-.607 1.231-1.116 0-3.822-4.014-5.426-8.607-.323-.892-.64-1.252-1.48-1.252H1.124C.189 6.251 0 6.682 0 7.165c0 .853 1.115 5.091 5.185 10.691 2.713 3.823 6.532 5.894 10.008 5.894 2.088 0 2.343-.46 2.343-1.251 0-3.653-.189-3.998.858-3.998.485 0 1.32.24 3.27 2.084 2.228 2.186 2.595 3.165 3.842 3.165h3.28c.935 0 1.409-.46 1.136-1.367-.623-1.91-4.838-5.835-5.028-6.098z"/></svg><svg viewBox="0 0 30 30" id="youtube" xmlns="http://www.w3.org/2000/svg"><path d="M13.132 17.81l4.88-2.81-4.88-2.81v5.62z"/><path d="M15 0C6.717 0 0 6.717 0 15c0 8.283 6.717 15 15 15 8.283 0 15-6.717 15-15 0-8.283-6.717-15-15-15zm9.373 15.015s0 3.042-.386 4.51a2.349 2.349 0 01-1.652 1.651c-1.467.387-7.335.387-7.335.387s-5.852 0-7.335-.402a2.349 2.349 0 01-1.652-1.652C5.627 18.057 5.627 15 5.627 15s0-3.042.386-4.509a2.396 2.396 0 011.652-1.667C9.132 8.438 15 8.438 15 8.438s5.868 0 7.334.401c.803.216 1.436.85 1.653 1.652.401 1.467.386 4.524.386 4.524z"/></svg></svg>