<svg width="14" height="14" fill="none" xmlns="http://www.w3.org/2000/svg"><path d="M11.667.25H2.333v1.5h9.334V.25zm-9.334 0A2.087 2.087 0 00.25 2.333h1.5c0-.319.264-.583.583-.583V.25zM.25 2.333v9.334h1.5V2.333H.25zm0 9.334c0 1.147.936 2.083 2.083 2.083v-1.5a.587.587 0 01-.583-.583H.25zm2.083 2.083h9.334v-1.5H2.333v1.5zm9.334 0a2.087 2.087 0 002.083-2.083h-1.5a.587.587 0 01-.583.583v1.5zm2.083-2.083V2.333h-1.5v9.334h1.5zm0-9.334A2.087 2.087 0 0011.667.25v1.5c.319 0 .583.264.583.583h1.5z" fill="#1C62CD"/><path fill-rule="evenodd" clip-rule="evenodd" d="M9.667 3.571H4.333a.764.764 0 00-.762.762v5.334c0 .419.343.762.762.762h5.334a.764.764 0 00.762-.762V4.333a.764.764 0 00-.762-.762z" fill="#1C62CD"/></svg>